<?xml version="1.0" standalone="no"?>
<!DOCTYPE svg PUBLIC "-//W3C//DTD SVG 1.1//EN" "http://www.w3.org/Graphics/SVG/1.1/DTD/svg11.dtd" >
<svg xmlns="http://www.w3.org/2000/svg" xmlns:xlink="http://www.w3.org/1999/xlink" version="1.1">
<metadata></metadata>
<defs>
<font id="chromateregular" horiz-adv-x="1024" >
<font-face units-per-em="2048" ascent="1638" descent="-410" />
<missing-glyph horiz-adv-x="716" />
<glyph horiz-adv-x="0" />
<glyph horiz-adv-x="682" />
<glyph unicode=" "  horiz-adv-x="716" />
<glyph unicode="&#x09;" horiz-adv-x="716" />
<glyph unicode="&#xa0;" horiz-adv-x="716" />
<glyph unicode="!" horiz-adv-x="563" d="M102 150q0 72 54 125t127 53q72 0 125 -53t53 -125q0 -73 -53 -127t-125 -54q-73 0 -127 53.5t-54 127.5zM129 1516h307l-71 -1016h-164z" />
<glyph unicode="&#x22;" horiz-adv-x="757" d="M61 1516h267l-72 -566h-123zM430 1516h266l-71 -566h-123z" />
<glyph unicode="#" horiz-adv-x="1101" d="M102 547v104h215l41 215h-256v105h277l106 545h105l-107 -545h217l105 545h104l-104 -545h194v-105h-215l-43 -215h258v-104h-276l-107 -547h-104l106 547h-217l-106 -547h-105l107 547h-195zM422 651h215l43 215h-217z" />
<glyph unicode="$" horiz-adv-x="1130" d="M102 156l113 362q42 -79 142 -200t178 -177v463q-153 113 -198 153q-171 148 -199 299q-7 34 -7 70q0 162 112 250t292 88v174h61v-176q244 -11 403 -102l-110 -363q-39 72 -127.5 183t-165.5 174v-410q19 -15 71.5 -55t76.5 -59t70 -59t69.5 -66t56 -67.5t48.5 -77 t28 -80.5t12 -91q0 -162 -119 -250t-313 -88v-174h-61v176q-268 11 -433 103zM381 1235q0 -111 154 -240v402q-2 1 -23 8q-61 0 -96 -50t-35 -120zM596 113q84 1 132 54t48 134q0 67 -46.5 127.5t-133.5 128.5v-444z" />
<glyph unicode="%" horiz-adv-x="1370" d="M102 1120q0 183 76.5 289.5t204.5 106.5q127 0 203 -106t76 -290q0 -182 -76 -287.5t-203 -105.5q-128 0 -204.5 105.5t-76.5 287.5zM195 0l888 1516h91l-889 -1516h-90zM233 1313q0 -57 15 -145.5t41 -181.5t70 -158.5t94 -65.5q37 0 57 44t20 122q0 57 -14.5 145.5 t-40.5 181.5t-69.5 158.5t-92.5 65.5q-38 0 -59 -43.5t-21 -122.5zM709 393q0 183 76 289t204 106q127 0 203 -105.5t76 -289.5q0 -182 -76 -287.5t-203 -105.5q-128 0 -204 105.5t-76 287.5zM840 586q0 -57 14.5 -145.5t40.5 -181.5t70 -158.5t94 -65.5q37 0 57.5 44 t20.5 122q0 57 -14.5 145.5t-40.5 181.5t-69.5 158.5t-92.5 65.5q-38 0 -59 -43.5t-21 -122.5z" />
<glyph unicode="&#x26;" horiz-adv-x="1597" d="M102 397q0 138 68.5 237.5t191.5 147.5q-107 105 -166 203t-59 203q0 162 116.5 260t289.5 98q172 0 278.5 -91t106.5 -247q0 -89 -54.5 -176t-162.5 -145q35 -34 110.5 -104t120.5 -113.5t101 -107t92 -118.5q53 95 82 160l-103 242h381l-215 -236q-52 -124 -109 -229 q50 -102 50 -197q0 -200 -129 -310t-347 -110v62q70 0 110.5 67.5t45.5 163.5q-130 -88 -272 -88q-246 0 -386.5 114t-140.5 314zM391 575q0 -66 18.5 -154t52.5 -177t92.5 -150t127.5 -61q102 0 215 98q-7 53 -33.5 109t-55 98t-85 102t-89.5 91.5t-107 98t-101 91.5 q-35 -50 -35 -146zM457 1288q0 -80 48 -160t138 -176q88 112 88 277q0 123 -39.5 189.5t-107.5 66.5q-64 0 -95.5 -55.5t-31.5 -141.5z" />
<glyph unicode="'" horiz-adv-x="389" d="M61 1516h267l-72 -566h-123z" />
<glyph unicode="(" horiz-adv-x="745" d="M102 645q0 160 29.5 302t81.5 247.5t120.5 184t147.5 120.5t162 47v-51q-86 -31 -142.5 -163t-79 -304.5t-22.5 -382.5t22.5 -382.5t79 -304.5t142.5 -163v-51q-83 5 -162 47t-147.5 120.5t-120.5 184t-81.5 247.5t-29.5 302z" />
<glyph unicode=")" horiz-adv-x="745" d="M102 -205q86 31 142.5 163t79 304.5t22.5 382.5t-22.5 382.5t-79 304.5t-142.5 163v51q83 -5 162 -47t147.5 -120.5t120.5 -184t81.5 -247.5t29.5 -302t-29.5 -302t-81.5 -247.5t-120.5 -184t-147.5 -120.5t-162 -47v51z" />
<glyph unicode="*" horiz-adv-x="622" d="M61 1135l189 110l-189 109l31 53l189 -109v218h61v-218l188 109l31 -53l-188 -109l188 -110l-31 -54l-188 109v-217h-61v217l-189 -109z" />
<glyph unicode="+" d="M102 727v61h379v379h62v-379h379v-61h-379v-379h-62v379h-379z" />
<glyph unicode="," horiz-adv-x="563" d="M102 150q0 72 54 125t127 53q72 0 125 -53t53 -125q0 -158 -91.5 -292t-246.5 -196q54 89 84.5 172.5t30.5 140.5q-58 15 -97 64t-39 111z" />
<glyph unicode="-" horiz-adv-x="782" d="M61 727v61h660v-61h-660z" />
<glyph unicode="." horiz-adv-x="563" d="M102 150q0 72 54 125t127 53q72 0 125 -53t53 -125q0 -73 -53 -127t-125 -54q-73 0 -127 53.5t-54 127.5z" />
<glyph unicode="/" horiz-adv-x="1116" d="M61 -166l889 1847h90l-888 -1847h-91z" />
<glyph unicode="0" horiz-adv-x="1202" d="M41 758q0 364 153 576t408 212t407 -210.5t152 -577.5q0 -364 -152.5 -576.5t-406.5 -212.5q-255 0 -408 212.5t-153 576.5zM305 1143q0 -89 17.5 -222t54.5 -286.5t87 -285.5t123 -220t154 -88q75 0 115.5 86.5t40.5 245.5q0 88 -17.5 220.5t-54.5 286.5t-86.5 286.5 t-122.5 220.5t-153 88q-76 0 -117 -86.5t-41 -245.5z" />
<glyph unicode="1" horiz-adv-x="675" d="M0 0l184 246v860l-184 246l492 164v-1270l184 -246h-676z" />
<glyph unicode="2" horiz-adv-x="1095" d="M20 0l13 168q41 30 117.5 109t174.5 203.5t184.5 259.5t146 289.5t59.5 279.5q0 46 -7.5 84t-25.5 65t-45 27q-63 -15 -157.5 -107.5t-164.5 -185t-118 -168.5l-142 403q240 119 570 119q208 0 308.5 -88.5t100.5 -253.5q0 -96 -47 -204.5t-119 -204t-169.5 -194 t-187.5 -172.5t-185 -142h249l418 104l-43 -391h-930z" />
<glyph unicode="3" horiz-adv-x="1060" d="M20 88l142 404q37 -60 81 -122.5t105 -140t123.5 -132t110.5 -66.5q48 0 75 56t27 149q0 57 -19 141.5t-52.5 172t-90.5 149t-123 61.5v61q66 0 126.5 56t98 134.5t59.5 155.5t22 127q0 82 -35.5 136.5t-85.5 54.5q-49 -23 -172 -188.5t-181 -272.5l-141 403 q101 50 231.5 84.5t268.5 34.5q206 0 307.5 -85t101.5 -236q0 -47 -14 -96.5t-43.5 -99.5t-72 -94.5t-104 -81.5t-134.5 -60q125 -34 210.5 -107.5t121.5 -157.5t36 -176q0 -178 -111 -280.5t-319 -102.5q-309 0 -549 119z" />
<glyph unicode="4" horiz-adv-x="1138" d="M61 418v110l582 754l21 234h413l-352 -232l-463 -600h297v188l307 152v-340h166v-266h-166v-172l185 -246h-676l184 246v172h-498z" />
<glyph unicode="5" horiz-adv-x="1107" d="M20 88l142 404q39 -62 82.5 -123t108.5 -139.5t136.5 -132.5t133.5 -66q48 0 75 61.5t27 163.5q0 62 -18 156.5t-49.5 190.5t-82.5 164.5t-108 68.5q-84 0 -146 -39.5t-147 -124.5h-61l67 844h445l417 104l-43 -391h-780l-37 -445q156 111 330 111q79 0 156 -20.5 t145.5 -60.5t120.5 -95t82.5 -129t30.5 -158q0 -103 -45.5 -192.5t-116.5 -147t-154.5 -90.5t-161.5 -33q-309 0 -549 119z" />
<glyph unicode="6" horiz-adv-x="1239" d="M61 758q0 364 153.5 576t408.5 212q130 0 258.5 -34.5t228.5 -84.5l-139 -403q-83 121 -214 275t-190 176q-118 0 -179.5 -86.5t-61.5 -245.5q0 -141 41 -361q131 166 317 166q69 0 136.5 -15.5t132.5 -51.5t114.5 -88t80 -132t30.5 -176q0 -61 -17 -128.5t-56 -137 t-94.5 -125t-139.5 -90.5t-183 -35q-300 0 -463.5 209.5t-163.5 579.5zM406 598q30 -114 64.5 -208.5t79 -175.5t99 -127t113.5 -46q58 0 90.5 70t32.5 186q0 52 -12 126t-37 155.5t-58 150.5t-80.5 114.5t-99.5 45.5q-33 0 -67 -34.5t-59 -86.5t-41 -94.5t-25 -75.5z" />
<glyph unicode="7" horiz-adv-x="1095" d="M61 1124l43 392h930v-99l-510 -1173l80 -244h-434l287 240l428 989h-445z" />
<glyph unicode="8" horiz-adv-x="1107" d="M61 397q0 149 80.5 253.5t220.5 146.5q-111 44 -180 135.5t-69 222.5q0 77 26 142t70 110t101 77t119.5 47t125.5 15t124.5 -15t119 -46.5t101 -76.5t69.5 -110.5t26 -142.5q0 -131 -69.5 -222.5t-180.5 -135.5q142 -42 222 -145.5t80 -254.5q0 -198 -135 -313t-357 -115 q-223 0 -358.5 115t-135.5 313zM350 575q0 -66 18.5 -154t52.5 -177t92.5 -150t127.5 -61q58 0 88.5 48.5t30.5 139.5q0 65 -19 152.5t-53 176t-92 149.5t-127 61q-119 0 -119 -185zM391 1319q0 -53 18 -134t48 -163t77.5 -140.5t98.5 -58.5q35 0 59.5 43.5t24.5 122.5 q0 53 -18 134t-48 162.5t-77 139.5t-97 58q-36 0 -61 -42.5t-25 -121.5z" />
<glyph unicode="9" horiz-adv-x="1239" d="M61 1030q0 61 17 128.5t56 137t94.5 125t139.5 90.5t183 35q300 0 463.5 -209t163.5 -579q0 -364 -153.5 -576.5t-408.5 -212.5q-130 0 -258.5 34.5t-228.5 84.5l139 404q83 -121 214 -275t190 -176q118 0 179.5 86.5t61.5 245.5q0 140 -41 360q-131 -166 -317 -166 q-69 0 -136.5 15.5t-132.5 51.5t-114.5 88t-80 132t-30.5 176zM354 1219q0 -52 12 -126t37 -155.5t58 -150.5t80.5 -114.5t99.5 -45.5q33 0 67 35t59.5 86.5t41.5 94.5t25 75q-30 114 -65 208.5t-79 175.5t-99 127t-114 46q-58 0 -90.5 -70t-32.5 -186z" />
<glyph unicode=":" horiz-adv-x="563" d="M102 150q0 72 54 125t127 53q72 0 125 -53t53 -125q0 -73 -53 -127t-125 -54q-73 0 -127 53.5t-54 127.5zM102 678q0 72 54 125t127 53q72 0 125 -53t53 -125q0 -73 -53 -126.5t-125 -53.5q-74 0 -127.5 53.5t-53.5 126.5z" />
<glyph unicode=";" horiz-adv-x="563" d="M102 150q0 72 54 125t127 53q72 0 125 -53t53 -125q0 -158 -91.5 -292t-246.5 -196q54 89 84.5 172.5t30.5 140.5q-58 15 -97 64t-39 111zM102 678q0 72 54 125t127 53q72 0 125 -53t53 -125q0 -73 -53 -126.5t-125 -53.5q-74 0 -127.5 53.5t-53.5 126.5z" />
<glyph unicode="&#x3c;" d="M102 721v74l820 225v-62l-729 -200l729 -201v-61z" />
<glyph unicode="=" d="M102 584v61h820v-61h-820zM102 870v62h820v-62h-820z" />
<glyph unicode="&#x3e;" d="M102 496v61l729 201l-729 200v62l820 -225v-74z" />
<glyph unicode="?" horiz-adv-x="976" d="M102 1427q75 49 192.5 84t246.5 35q333 0 333 -301q0 -73 -25 -140t-65.5 -119t-89 -101t-97 -94.5t-89 -89.5t-65.5 -96t-25 -105h-119q0 104 31.5 206t76.5 183.5t89.5 158.5t76 161t31.5 161q0 55 -12 85t-43 30q-34 -12 -81.5 -67t-93 -130t-81 -142.5t-60.5 -121.5z M186 150q0 72 54 125t127 53q72 0 125 -53t53 -125q0 -73 -53 -127t-125 -54q-73 0 -127 53.5t-54 127.5z" />
<glyph unicode="@" horiz-adv-x="1460" d="M102 598q0 169 84.5 313.5t229.5 229t315 84.5q169 0 313.5 -84.5t229 -229t84.5 -313.5q0 -165 -102 -282t-240 -117q-51 0 -92.5 14.5t-65.5 35t-40 45.5t-21.5 43.5t-5.5 31.5q-36 -53 -90 -88t-119 -35q-82 0 -133.5 57.5t-51.5 136.5q0 58 36 107.5t97 83.5 t125 57.5t136 38.5v41q0 143 -58 143q-20 -5 -78.5 -60.5t-111.5 -123.5l-88 184q97 39 278 39q71 0 118.5 -14t71 -40.5t33 -56.5t9.5 -71v-309q0 -24 0.5 -40t3.5 -41t10 -41.5t18 -33t30 -25t44 -8.5q76 0 150.5 93.5t74.5 234.5q0 153 -76 283t-206 206t-283 76 q-154 0 -284.5 -76t-206.5 -206t-76 -283q0 -154 76 -284.5t206.5 -206.5t284.5 -76q163 0 297 86l35 -51q-153 -97 -332 -97q-170 0 -315 84.5t-229.5 229.5t-84.5 315zM584 455q0 -101 65 -101q68 0 142 62v262q-87 -29 -147 -99t-60 -124z" />
<glyph unicode="A" horiz-adv-x="1503" d="M0 0l254 246l373 1016l-86 254h325l434 -1274l203 -242h-635l107 238l-62 186h-528l-66 -178l117 -246h-436zM408 485h483l-232 684z" />
<glyph unicode="B" horiz-adv-x="1353" d="M72 0l184 246v1024l-184 246h686q225 0 352 -107t127 -279q0 -117 -61 -205.5t-175 -133.5q152 -36 235 -139.5t83 -248.5q0 -179 -127 -291t-352 -112h-768zM563 61h228q87 0 146.5 50.5t84.5 125t25 166.5t-25 167.5t-84.5 126.5t-146.5 51h-228v-687zM563 809h146 q87 0 146.5 47t84.5 117.5t25 156.5q0 87 -25 157.5t-84.5 118.5t-146.5 48h-146v-645z" />
<glyph unicode="C" horiz-adv-x="1349" d="M39 758q0 129 35.5 249t101.5 217t155.5 169.5t203.5 112.5t239 40q146 0 289.5 -35.5t241.5 -83.5l-142 -403q-42 68 -127 166.5t-188 189t-166 105.5q-137 0 -230.5 -147t-93.5 -377q0 -72 12.5 -155.5t37.5 -172.5t60.5 -175t85 -162t106.5 -134t129 -91.5t149 -33.5 q185 0 297 305l80 -213q-101 -75 -213.5 -117.5t-274.5 -42.5q-174 0 -322.5 62t-249.5 168.5t-158.5 251.5t-57.5 307z" />
<glyph unicode="D" horiz-adv-x="1550" d="M72 0l184 246v1024l-184 246h651q174 0 322 -57.5t250 -158t159 -240.5t57 -302t-57 -302t-159 -240.5t-250 -158t-322 -57.5h-651zM563 61h160q111 0 198.5 56t142 153t82.5 221.5t28 266.5t-28 266.5t-82.5 221t-142 152.5t-198.5 56h-160v-1393z" />
<glyph unicode="E" horiz-adv-x="1282" d="M72 0l184 246v1024l-184 246h1136l39 -375l-559 313h-125v-645h125l387 223v-508l-387 224h-125v-687h146l538 314l-39 -375h-1136z" />
<glyph unicode="F" horiz-adv-x="1282" d="M72 0l184 246v1024l-184 246h1136l39 -375l-559 313h-125v-727h125l387 223v-508l-387 224h-125v-422l182 -244h-673z" />
<glyph unicode="G" horiz-adv-x="1384" d="M39 758q0 129 35.5 249t101.5 217t155.5 169.5t203.5 112.5t239 40q146 0 289.5 -35.5t241.5 -83.5l-142 -403q-42 68 -127 166.5t-188 189t-166 105.5q-137 0 -230.5 -147t-93.5 -377q0 -72 12.5 -155.5t37.5 -172.5t60.5 -175t85 -162t106.5 -134t129 -91.5t149 -33.5 q100 0 187 55.5t130 126.5v123l-356 473h436v-686q-102 -76 -217 -118t-291 -42q-174 0 -322.5 62t-249.5 168.5t-158.5 251.5t-57.5 307z" />
<glyph unicode="H" horiz-adv-x="1638" d="M72 0l184 246v1024l-184 246h676l-185 -246v-482h512v482l-184 246h676l-185 -246v-1024l185 -246h-676l184 246v481h-512v-481l185 -246h-676z" />
<glyph unicode="I" horiz-adv-x="819" d="M72 0l184 246v1024l-184 246h676l-185 -246v-1024l185 -246h-676z" />
<glyph unicode="J" horiz-adv-x="1081" d="M37 88l127 404q18 -47 27 -70t29.5 -73t34.5 -79t34.5 -71.5t38 -67.5t37 -50.5t38.5 -37.5t37 -12q47 0 62.5 91.5t15.5 264.5v883l-184 246h676l-185 -246v-883q0 -90 -21 -163.5t-65 -131.5t-120 -90.5t-179 -32.5q-231 0 -403 119z" />
<glyph unicode="K" horiz-adv-x="1556" d="M72 0l184 246v1024l-184 246h676l-185 -246v-490l412 490l-27 246h445l-338 -244l-428 -512l342 -49l317 -467l270 -244h-702l59 244l-350 514v-512l185 -246h-676z" />
<glyph unicode="L" horiz-adv-x="1247" d="M72 0l184 246v1024l-184 246h673l-182 -244v-1211h146l538 314l-39 -375h-1136z" />
<glyph unicode="M" horiz-adv-x="1855" d="M49 0l184 246v1024l-184 246h430l-10 -13l457 -811l342 611l-160 213h676l-185 -246v-1024l185 -246h-676l184 246v971l-471 -840h-73l-453 807v-938l184 -246h-430z" />
<glyph unicode="N" horiz-adv-x="1488" d="M49 0l184 246v1024l-184 246h430l-8 -13l723 -1126v893l-184 246h430l-185 -246v-989l181 -281h-375l-766 1194v-948l184 -246h-430z" />
<glyph unicode="O" horiz-adv-x="1654" d="M39 758q0 162 57 306.5t158.5 251t250 168.5t322.5 62t322.5 -61.5t250 -167.5t159 -250.5t57.5 -308.5q0 -218 -97.5 -397t-279 -285.5t-412.5 -106.5q-174 0 -322.5 62t-249.5 168.5t-158.5 251.5t-57.5 307zM358 961q0 -72 12.5 -155.5t37.5 -172.5t60.5 -175t85 -162 t106.5 -134t129 -91.5t149 -33.5q162 0 260 142t98 376q0 84 -17.5 183.5t-49.5 203.5t-83 200t-113 171.5t-144 120.5t-172 45q-162 0 -260.5 -142t-98.5 -376z" />
<glyph unicode="P" horiz-adv-x="1335" d="M72 0l184 246v1024l-184 246h604q155 0 275 -35.5t194.5 -99.5t112.5 -149.5t38 -189.5q0 -214 -157 -343.5t-463 -129.5h-113v-323l185 -246h-676zM563 631h113q137 0 209.5 114t72.5 297t-72.5 297.5t-209.5 114.5h-113v-823z" />
<glyph unicode="Q" horiz-adv-x="1654" d="M39 758q0 162 57 306.5t158.5 251t250 168.5t322.5 62t322.5 -62t250 -168.5t159 -251t57.5 -306.5q0 -163 -57 -307.5t-158 -251t-250 -168.5t-324 -62h-96q192 -114 483 -114q221 0 422 106l-147 -346q-200 49 -498.5 174t-484.5 242q-216 89 -341.5 284.5 t-125.5 442.5zM358 961q0 -72 12.5 -155.5t37.5 -172.5t60.5 -175t85 -162t106.5 -134t129 -91.5t149 -33.5q162 0 260 142t98 376q0 84 -17.5 183.5t-49.5 203.5t-83 200t-113 171.5t-144 120.5t-172 45q-162 0 -260.5 -142t-98.5 -376z" />
<glyph unicode="R" horiz-adv-x="1492" d="M72 0l184 246v1024l-184 246h604q155 0 275 -35.5t194.5 -99.5t112.5 -149.5t38 -189.5q0 -179 -111.5 -300.5t-330.5 -157.5l215 -56l154 -284l270 -244h-653l59 246l-162 325l-61 -2h-113v-323l185 -246h-676zM563 631h113q137 0 209.5 114t72.5 297t-72.5 297.5 t-209.5 114.5h-113v-823z" />
<glyph unicode="S" horiz-adv-x="1271" d="M61 88l142 404q41 -66 132 -166.5t198.5 -190t171.5 -104.5q79 0 117 58.5t38 158.5q0 53 -26 105.5t-70.5 98t-101.5 91.5t-120.5 91.5t-127 92t-120.5 98.5t-101.5 106.5t-70.5 120.5t-26 136q0 172 126 265t351 93q174 0 323 -35t249 -84l-141 -403 q-69 111 -225 274.5t-236 186.5q-64 0 -95.5 -55.5t-31.5 -141.5q0 -63 42 -127t109.5 -120.5t149 -115.5t163 -123t149 -131t109.5 -151t42 -172q0 -379 -486 -379q-204 0 -369 35t-264 84z" />
<glyph unicode="T" horiz-adv-x="1409" d="M0 1141l39 375h1331l39 -375l-539 313h-12v-1210l182 -244h-673l184 246v1208h-12z" />
<glyph unicode="U" horiz-adv-x="1533" d="M72 1516h676l-185 -246v-883q0 -76 18 -139t54.5 -112.5t98 -77t143.5 -27.5q156 0 259 103t103 253v883l-184 246h430l-185 -246v-883q0 -88 -29.5 -163t-86 -132.5t-146.5 -90t-204 -32.5q-277 0 -427.5 118t-150.5 300v883z" />
<glyph unicode="V" horiz-adv-x="1503" d="M0 1516h635l-107 -238l332 -977l330 969l-123 246h436l-248 -246l-432 -1270h-186l-434 1274z" />
<glyph unicode="W" horiz-adv-x="2226" d="M0 1516h635l-107 -238l316 -1032l219 700l-107 340l-233 230h655l-94 -238l315 -1032l322 1028l-131 242h436l-237 -236l-402 -1280h-227l-264 842l-265 -842h-227l-399 1272z" />
<glyph unicode="X" horiz-adv-x="1449" d="M0 0l313 244l275 465l-295 577l-250 230h676l-92 -222l190 -368l203 344l-57 246h454l-313 -244l-234 -393l332 -650l248 -229h-676l92 221l-225 438l-244 -413l58 -246h-455z" />
<glyph unicode="Y" horiz-adv-x="1392" d="M0 1516h614l-51 -267l242 -485l244 487l-60 265h404l-277 -267l-276 -555v-448l184 -246h-676l184 246v448l-276 555z" />
<glyph unicode="Z" horiz-adv-x="1128" d="M35 0v61l725 1393h-131l-559 -313l39 375h985v-62l-725 -1393h131l559 314l-39 -375h-985z" />
<glyph unicode="[" horiz-adv-x="688" d="M102 -256v1772h484v-62h-187v-1649h187v-61h-484z" />
<glyph unicode="\" horiz-adv-x="1101" d="M61 1681h91l888 -1847h-90z" />
<glyph unicode="]" horiz-adv-x="688" d="M102 -195h187v1649h-187v62h484v-1772h-484v61z" />
<glyph unicode="^" horiz-adv-x="667" d="M102 897l185 619h94l184 -619h-61l-170 567l-170 -567h-62z" />
<glyph unicode="_" horiz-adv-x="1257" d="M-20 -186h1298v-62h-1298v62z" />
<glyph unicode="`" horiz-adv-x="667" d="M82 1356l291 133l213 -408z" />
<glyph unicode="a" horiz-adv-x="1112" d="M51 270q0 71 38 135.5t98 111.5t142 86.5t162.5 64.5t165.5 43v61q0 22 -1 41.5t-5.5 55.5t-13.5 61.5t-27 45t-43 19.5q-29 -8 -119.5 -94.5t-173.5 -189.5l-135 284q62 24 175 42t253 18q87 0 151.5 -15t103.5 -39.5t62.5 -62t31.5 -76.5t8 -90v-526l155 -246h-422v160 q-58 -82 -140.5 -136.5t-182.5 -54.5q-125 0 -204 88.5t-79 212.5zM338 305q0 -74 27 -114.5t75 -40.5q109 0 217 96v401q-132 -43 -225.5 -151.5t-93.5 -190.5z" />
<glyph unicode="b" horiz-adv-x="1161" d="M37 0l156 246v973l-156 245l422 82v-700q56 89 135 147t158 58q123 0 211.5 -74t131 -194.5t42.5 -272.5t-42.5 -272.5t-131 -194.5t-211.5 -74q-79 0 -158 58t-135 147v-174h-422zM459 264q28 -36 45 -55.5t44 -46.5t52.5 -40t50.5 -13q199 0 199 401t-199 401 q-25 0 -50.5 -13t-52.5 -40t-44 -46.5t-45 -55.5v-492z" />
<glyph unicode="c" horiz-adv-x="976" d="M25 512q0 147 72.5 272t196 198t267.5 73q93 0 195.5 -18.5t161.5 -41.5l-136 -284q-83 104 -181 190t-136 94q-76 0 -123 -89t-47 -228q0 -83 26 -191.5t71.5 -212t117.5 -174.5t152 -71q48 10 121.5 64.5t117.5 109.5l68 -99q-41 -31 -68.5 -48.5t-76 -41t-106 -34.5 t-126.5 -11q-159 0 -289.5 73t-204 197.5t-73.5 272.5z" />
<glyph unicode="d" horiz-adv-x="1169" d="M25 514q0 152 42.5 272.5t131 194.5t211.5 74q79 0 157.5 -58t134.5 -147v369l-155 245l422 82v-1300l155 -246h-422v178q-56 -89 -134.5 -147t-157.5 -58q-123 0 -211.5 74t-131 194.5t-42.5 272.5zM311 514q0 -401 199 -401q25 0 50.5 13t52.5 40t44 46.5t45 55.5v492 q-28 36 -45 55.5t-44 46.5t-52.5 40t-50.5 13q-199 0 -199 -401z" />
<glyph unicode="e" horiz-adv-x="1044" d="M25 512q0 147 72.5 272t196 198t267.5 73q80 0 155 -29t132 -77.5t100 -109.5t65.5 -127.5t22.5 -129.5l-692 -181q23 -74 54.5 -138t71 -118t89.5 -85t103 -31q48 10 121.5 64.5t117.5 109.5l68 -99q-41 -31 -68.5 -48.5t-76 -41t-106 -34.5t-126.5 -11 q-159 0 -289.5 73t-204 197.5t-73.5 272.5zM295 678q0 -91 31 -215l415 106q-7 67 -27.5 137.5t-53 137t-84 109t-111.5 42.5q-76 0 -123 -89t-47 -228z" />
<glyph unicode="f" horiz-adv-x="911" d="M37 0l156 246v727h-156v51h156v164q0 209 63.5 283.5t243.5 74.5q83 0 213.5 -17t216.5 -42l-176 -285q-220 273 -277 285q-18 0 -18 -113v-350h325v-51h-325v-727l155 -246h-577z" />
<glyph unicode="g" horiz-adv-x="1171" d="M25 514q0 152 42.5 272.5t131 194.5t211.5 74q79 0 159 -59t136 -148v207l421 -82l-155 -246v-891q0 -201 -89.5 -279.5t-279.5 -78.5q-83 0 -213.5 17t-216.5 42l176 285q106 -132 178 -205t119 -80q39 0 49.5 24.5t10.5 88.5v530q-56 -89 -136 -148t-159 -59 q-123 0 -211.5 74t-131 194.5t-42.5 272.5zM311 514q0 -401 199 -401q26 0 52 13.5t53 40.5t45 48t45 57v484q-27 36 -45 57t-45 48t-53 40.5t-52 13.5q-199 0 -199 -401z" />
<glyph unicode="h" horiz-adv-x="1275" d="M37 0l156 246v973l-156 245l422 82v-717q182 226 370 226q77 0 129.5 -21.5t79.5 -62.5t38 -88t11 -111v-526l156 -246h-557l135 246v526q0 18 -1 29.5t-5.5 28.5t-13.5 27.5t-27 18t-43 7.5q-132 0 -272 -129v-508l135 -246h-557z" />
<glyph unicode="i" horiz-adv-x="647" d="M37 0l156 246v481l-156 215l422 82v-778l155 -246h-577zM147 1368q0 72 54 125t127 53q72 0 125 -53t53 -125q0 -73 -53 -126.5t-125 -53.5q-74 0 -127.5 53.5t-53.5 126.5z" />
<glyph unicode="j" horiz-adv-x="559" d="M-270 -463l176 285q220 -274 276 -285q19 0 19 113v1077l-156 215l422 82v-1188q0 -209 -63.5 -283.5t-243.5 -74.5q-83 0 -213.5 17t-216.5 42zM156 1368q0 72 53.5 125t126.5 53q72 0 125 -53t53 -125q0 -73 -53 -126.5t-125 -53.5q-74 0 -127 53t-53 127z" />
<glyph unicode="k" horiz-adv-x="1247" d="M37 0l156 246v973l-156 245l422 82v-887l268 183l102 182h373l-375 -182l-323 -217l229 -35l273 -365l241 -225h-592l37 215l-233 313v-282l114 -246h-536z" />
<glyph unicode="l" horiz-adv-x="647" d="M37 0l156 246v973l-156 245l422 82v-1300l155 -246h-577z" />
<glyph unicode="m" horiz-adv-x="1871" d="M45 0l156 246v481l-156 215l422 82v-176q175 207 340 207q130 0 188 -59.5t68 -166.5q182 226 362 226q77 0 129.5 -21.5t79.5 -62.5t38 -88t11 -111v-526l156 -246h-557l135 246v526q0 18 -1 29.5t-5.5 28.5t-13.5 27.5t-27 18t-43 7.5q-120 0 -262 -127v-510l156 -246 h-557l135 246v526q0 18 -1 29.5t-5.5 28.5t-13.5 27.5t-27 18t-43 7.5q-111 0 -242 -117v-520l135 -246h-557z" />
<glyph unicode="n" horiz-adv-x="1284" d="M45 0l156 246v481l-156 215l422 82v-195q182 226 371 226q77 0 129.5 -21.5t79.5 -62.5t38 -88t11 -111v-526l155 -246h-557l135 246v526q0 18 -1 29.5t-5.5 28.5t-13.5 27.5t-27 18t-43 7.5q-132 0 -272 -129v-508l135 -246h-557z" />
<glyph unicode="o" horiz-adv-x="1134" d="M25 512q0 147 72.5 272t197.5 198t272 73t272 -73t198 -198t73 -272t-73 -272t-198 -198t-272 -73t-272 73t-197.5 198t-72.5 272zM295 678q0 -83 26 -191.5t71.5 -212t117.5 -174.5t152 -71q82 0 130 88.5t48 228.5q0 83 -26 191.5t-71.5 212t-117.5 174.5t-152 71 q-82 0 -130 -88.5t-48 -228.5z" />
<glyph unicode="p" horiz-adv-x="1161" d="M37 -492l156 246v973l-156 246l422 82v-205q56 89 135 147t158 58q123 0 211.5 -74t131 -194.5t42.5 -272.5t-42.5 -272.5t-131 -194.5t-211.5 -74q-79 0 -158 58t-135 147v-424l135 -246h-557zM459 268q28 -36 45 -55.5t44 -46.5t52.5 -40t50.5 -13q199 0 199 401 t-199 401q-25 0 -50.5 -13t-52.5 -40t-44 -46.5t-45 -55.5v-492z" />
<glyph unicode="q" horiz-adv-x="1169" d="M25 514q0 152 42.5 272.5t131 194.5t211.5 74q79 0 157.5 -58t134.5 -147v205l422 -82l-155 -246v-973l155 -246h-557l135 246v424q-56 -89 -134.5 -147t-157.5 -58q-123 0 -211.5 74t-131 194.5t-42.5 272.5zM311 514q0 -401 199 -401q25 0 50.5 13t52.5 40t44 46.5 t45 55.5v492q-28 36 -45 55.5t-44 46.5t-52.5 40t-50.5 13q-199 0 -199 -401z" />
<glyph unicode="r" horiz-adv-x="995" d="M45 0l156 246v481l-156 215l422 82v-199q112 230 233 230q113 0 295 -60l-135 -284q-68 63 -166.5 118.5t-132.5 55.5q-29 -15 -94 -174v-465l156 -246h-578z" />
<glyph unicode="s" horiz-adv-x="937" d="M51 29l135 284q87 -108 189.5 -192t169.5 -101q50 0 85.5 31.5t35.5 75.5q0 51 -63.5 111t-153.5 120.5t-180.5 126.5t-154 149t-63.5 167q0 119 98.5 186.5t290.5 67.5q137 0 254 -18.5t178 -41.5l-135 -284q-95 118 -182 201.5t-135 91.5q-50 0 -85.5 -31.5 t-35.5 -75.5q0 -42 34 -86t88 -85t119.5 -83.5t131 -88.5t119.5 -93t88 -103.5t34 -113.5q0 -120 -95.5 -197.5t-268.5 -77.5q-154 0 -297 19t-201 41z" />
<glyph unicode="t" horiz-adv-x="569" d="M4 973v39l361 329v-317h163v-51h-163v-721q0 -127 13.5 -174t55.5 -47q51 0 119 41l16 -37q-82 -66 -200 -66q-144 0 -207.5 67t-63.5 216v721h-94z" />
<glyph unicode="u" horiz-adv-x="1271" d="M33 942l422 82v-772q0 -18 1 -29.5t5.5 -28.5t13.5 -27.5t27 -18t43 -7.5q132 0 272 129v457l-155 215l421 82v-809l156 -215h-422v195q-182 -226 -371 -226q-77 0 -129.5 21.5t-79.5 62.5t-38 88t-11 111v475z" />
<glyph unicode="v" horiz-adv-x="1187" d="M0 1024h578l-56 -246l199 -477l194 477l-53 246h326l-215 -246l-322 -778h-114l-322 778z" />
<glyph unicode="w" horiz-adv-x="1662" d="M0 1024h537l-27 -240l176 -471l119 312l-72 186l-155 213h577l-115 -223l183 -488l178 467l-64 244h326l-209 -246l-297 -778h-115l-211 553l-210 -553h-115l-299 782z" />
<glyph unicode="x" horiz-adv-x="1150" d="M0 0l260 244l178 262l-166 272l-243 246h622l-67 -246l114 -190l131 192l-51 244h373l-260 -244l-164 -239l180 -295l244 -246h-623l68 246l-129 211l-145 -213l51 -244h-373z" />
<glyph unicode="y" horiz-adv-x="1187" d="M-86 -463l135 285q68 -63 166.5 -118.5t132.5 -55.5q54 53 100 125t103 194l-336 811l-215 246h578l-56 -246l187 -452l204 462l-51 236h326l-215 -246l-322 -778q-18 -43 -56.5 -117t-95.5 -171t-121 -165.5t-112 -68.5q-173 0 -352 59z" />
<glyph unicode="z" horiz-adv-x="931" d="M20 0v29l564 944h-76q-51 -9 -174.5 -90t-198.5 -154l-80 295h860v-29l-563 -944h76q51 9 174.5 90t198.5 154l80 -295h-861z" />
<glyph unicode="{" horiz-adv-x="606" d="M102 598v64q65 0 90 53t25 151q0 52 -9 172.5t-9 180.5q0 52 4.5 93.5t18 80.5t34.5 65.5t56.5 42t82.5 15.5h109v-62h-41q-57 0 -57 -158q0 -38 4 -133.5t4 -146.5q0 -75 -7 -133t-24.5 -114t-53.5 -91.5t-89 -46.5q53 -12 89 -48t53.5 -92t24.5 -114.5t7 -134.5 q0 -52 -4 -147t-4 -132q0 -78 12 -118t45 -40h41v-61h-109q-47 0 -82.5 15.5t-57 41.5t-34.5 65t-17.5 80t-4.5 93q0 60 9 183t9 175q0 96 -25.5 148.5t-89.5 52.5z" />
<glyph unicode="|" horiz-adv-x="266" d="M102 -492v2008h62v-2008h-62z" />
<glyph unicode="}" horiz-adv-x="606" d="M102 -195h41q33 0 45.5 40t12.5 118q0 37 -4 132t-4 147q0 76 7 134.5t24.5 114.5t53.5 92t89 48q-53 11 -89 46.5t-53.5 91.5t-24.5 114t-7 133q0 51 4 146.5t4 133.5q0 158 -58 158h-41v62h109q59 0 99 -23t60.5 -66t29 -92.5t8.5 -115.5q0 -60 -9.5 -180.5 t-9.5 -172.5q0 -98 25 -151t90 -53v-64q-64 0 -89.5 -52.5t-25.5 -148.5q0 -52 9.5 -175t9.5 -183q0 -66 -8.5 -115.5t-29 -92t-60.5 -65t-99 -22.5h-109v61z" />
<glyph unicode="~" horiz-adv-x="1007" d="M102 616q0 283 160 283q52 0 122.5 -34.5t129 -76t124 -76t107.5 -34.5q99 0 99 221h61q0 -283 -160 -283q-52 0 -122.5 34.5t-129 76.5t-124 76.5t-107.5 34.5q-98 0 -98 -222h-62z" />
<glyph unicode="&#xa1;" horiz-adv-x="563" d="M102 874q0 74 54 127.5t127 53.5q72 0 125 -54t53 -127q0 -72 -53 -125t-125 -53q-73 0 -127 53t-54 125zM129 -492l72 1016h164l71 -1016h-307z" />
<glyph unicode="&#xa7;" horiz-adv-x="1157" d="M102 584q0 109 55.5 185.5t155.5 115.5q-155 152 -155 323q0 162 112.5 250t292.5 88q147 0 266 -30t197 -74l-111 -363q-55 102 -178.5 244.5t-197.5 163.5q-61 0 -96 -50t-35 -120q0 -45 22 -89.5t59.5 -83.5t86 -79.5t102.5 -81t107.5 -82.5t102 -90t86 -99t59.5 -113 t22 -128q0 -109 -55.5 -185.5t-155.5 -115.5q155 -152 155 -324q0 -162 -112.5 -250t-292.5 -88q-147 0 -266 30.5t-197 74.5l111 362q55 -102 178.5 -244t197.5 -163q62 0 97 50t35 120q0 50 -28 100t-73.5 92.5t-103.5 90t-119 91.5t-119 97.5t-103.5 108t-73.5 123.5 t-28 143zM354 672q0 -46 22 -89.5t68.5 -87.5t88.5 -77t112.5 -84.5t110.5 -83.5q47 50 47 133q0 46 -22 89.5t-68.5 87.5t-88.5 77t-112.5 84.5t-110.5 83.5q-47 -50 -47 -133z" />
<glyph unicode="&#xa8;" horiz-adv-x="860" d="M82 1286q0 62 43 105t106 43q61 0 104.5 -43t43.5 -105q0 -63 -43 -106t-105 -43q-63 0 -106 43t-43 106zM481 1286q0 62 43.5 105t106.5 43q61 0 104 -43t43 -105q0 -63 -42.5 -106t-104.5 -43q-63 0 -106.5 43t-43.5 106z" />
<glyph unicode="&#xa9;" horiz-adv-x="1460" d="M102 760q0 127 50 242.5t134.5 199.5t201 134t243.5 50q169 0 313.5 -84t229 -228.5t84.5 -313.5q0 -170 -84.5 -315t-229 -229.5t-313.5 -84.5q-170 0 -315 84.5t-229.5 229.5t-84.5 315zM164 760q0 -154 76 -284.5t206.5 -206.5t284.5 -76q153 0 283 76t206 206.5 t76 284.5q0 153 -76 283t-206 206t-283 76q-154 0 -284.5 -76t-206.5 -206t-76 -283zM424 760q0 146 102.5 249t245.5 103q61 0 128 -12t104 -27l-89 -184q-54 68 -117 123.5t-89 60.5q-49 0 -80 -57.5t-31 -147.5q0 -54 17.5 -125t47 -138t76.5 -113t99 -46q31 6 78.5 41 t76.5 72l43 -63q-35 -27 -60 -42.5t-75 -30.5t-108 -15q-157 0 -263 102.5t-106 249.5z" />
<glyph unicode="&#xad;" horiz-adv-x="782" d="M61 727v61h660v-61h-660z" />
<glyph unicode="&#xae;" horiz-adv-x="1460" d="M102 760q0 127 50 242.5t134.5 199.5t201 134t243.5 50q169 0 313.5 -84t229 -228.5t84.5 -313.5q0 -170 -84.5 -315t-229 -229.5t-313.5 -84.5q-170 0 -315 84.5t-229.5 229.5t-84.5 315zM164 760q0 -154 76 -284.5t206.5 -206.5t284.5 -76q153 0 283 76t206 206.5 t76 284.5q0 153 -76 283t-206 206t-283 76q-154 0 -284.5 -76t-206.5 -206t-76 -283zM391 397l88 117v490l-88 118h289q146 0 220.5 -62t74.5 -165q0 -86 -53 -144t-156 -75l102 -27l74 -135l129 -117h-313l28 117l-75 158l-31 -2h-55v-156l90 -117h-324zM627 698h55 q66 0 100.5 54.5t34.5 142.5t-34.5 142.5t-100.5 54.5h-55v-394z" />
<glyph unicode="&#xaf;" horiz-adv-x="585" d="M82 1255v62h422v-62h-422z" />
<glyph unicode="&#xb0;" horiz-adv-x="704" d="M61 1210q0 138 85.5 237t205.5 99t205.5 -99t85.5 -237q0 -139 -85.5 -238.5t-205.5 -99.5t-205.5 99.5t-85.5 238.5zM193 1210q0 -106 46.5 -181t112.5 -75t113 75t47 181q0 104 -47 179t-113 75t-112.5 -74.5t-46.5 -179.5z" />
<glyph unicode="&#xb1;" d="M102 248v61h820v-61h-820zM102 854v61h379v379h62v-379h379v-61h-379v-379h-62v379h-379z" />
<glyph unicode="&#xb4;" horiz-adv-x="667" d="M82 1081l213 408l291 -133z" />
<glyph unicode="&#xb8;" horiz-adv-x="464" d="M82 -354l10 45q83 0 113.5 28t30.5 74q0 22 -13.5 32.5t-32.5 10.5q-23 0 -40 -10h-27l39 174h63l-30 -125q32 14 69 14q49 0 84 -25.5t35 -70.5q0 -71 -68.5 -109t-232.5 -38z" />
<glyph unicode="&#xbf;" horiz-adv-x="976" d="M102 -221q0 73 25 140t65.5 119t89.5 101t97.5 94.5t89 89.5t65.5 96t25 105h119q0 -104 -31.5 -206t-76 -183.5t-89.5 -158.5t-76.5 -161t-31.5 -161q0 -55 12 -85t43 -30q34 12 81.5 67t92.5 130.5t80.5 142t60.5 121.5l131 -403q-75 -49 -192 -84t-246 -35 q-334 0 -334 301zM432 874q0 73 53 127t125 54q74 0 127.5 -53.5t53.5 -127.5q0 -72 -54 -125t-127 -53q-72 0 -125 53t-53 125z" />
<glyph unicode="&#xc4;" horiz-adv-x="1503" d="M0 0l254 246l373 1016l-86 254h325l434 -1274l203 -242h-635l107 238l-62 186h-528l-66 -178l117 -246h-436zM403 1778q0 62 43.5 104.5t106.5 42.5q61 0 104 -42.5t43 -104.5q0 -63 -42.5 -106.5t-104.5 -43.5q-63 0 -106.5 43.5t-43.5 106.5zM408 485h483l-232 684z M803 1778q0 62 43 104.5t106 42.5q62 0 105 -43t43 -104q0 -63 -43 -106.5t-105 -43.5q-63 0 -106 43.5t-43 106.5z" />
<glyph unicode="&#xc7;" horiz-adv-x="1349" d="M39 758q0 129 35.5 249t101.5 217t155.5 169.5t203.5 112.5t239 40q146 0 289.5 -35.5t241.5 -83.5l-142 -403q-42 68 -127 166.5t-188 189t-166 105.5q-137 0 -230.5 -147t-93.5 -377q0 -72 12.5 -155.5t37.5 -172.5t60.5 -175t85 -162t106.5 -134t129 -91.5t149 -33.5 q185 0 297 305l80 -213q-100 -74 -209.5 -116.5t-265.5 -43.5l-23 -94q32 14 70 14q49 0 84 -25.5t35 -70.5q0 -71 -68.5 -109t-232.5 -38l10 45q83 0 113 28t30 74q0 22 -13 32.5t-32 10.5q-24 0 -41 -10h-27l33 145q-164 8 -303 73.5t-234 171t-148.5 245.5t-53.5 297z " />
<glyph unicode="&#xd7;" horiz-adv-x="827" d="M102 489l269 269l-269 268l43 43l269 -268l268 268l43 -43l-268 -268l268 -269l-43 -43l-268 269l-269 -269z" />
<glyph unicode="&#xdc;" horiz-adv-x="1533" d="M72 1516h676l-185 -246v-883q0 -76 18 -139t54.5 -112.5t98 -77t143.5 -27.5q156 0 259 103t103 253v883l-184 246h430l-185 -246v-883q0 -88 -29.5 -163t-86 -132.5t-146.5 -90t-204 -32.5q-277 0 -427.5 118t-150.5 300v883zM420 1778q0 62 43 104.5t106 42.5 q62 0 105 -43t43 -104q0 -63 -43 -106.5t-105 -43.5q-63 0 -106 43.5t-43 106.5zM819 1778q0 62 43.5 104.5t106.5 42.5q61 0 104 -42.5t43 -104.5q0 -63 -42.5 -106.5t-104.5 -43.5q-63 0 -106.5 43.5t-43.5 106.5z" />
<glyph unicode="&#xdf;" horiz-adv-x="1353" d="M37 0l156 246v792q0 86 16.5 160.5t52.5 139t90 110.5t133 72t177 26t175 -21t123 -53t75.5 -74t40.5 -80t11 -75q0 -64 -28 -116t-67.5 -85.5t-79 -62t-67.5 -59.5t-28 -64t28 -70.5t73.5 -74t100 -76.5t109 -84t100 -90.5t73.5 -103t28 -113.5q0 -120 -95.5 -197.5 t-268.5 -77.5q-240 0 -396 60l136 284q57 -111 133.5 -193.5t142.5 -99.5q47 0 76.5 39.5t29.5 87.5q0 46 -28.5 90t-74.5 82.5t-101 78.5t-110 86t-101 96t-74.5 116.5t-28.5 141.5q0 60 31.5 109t76.5 82t89.5 63t76 68t31.5 83q0 36 -8 72.5t-27.5 77.5t-60 66.5 t-96.5 25.5q-223 0 -223 -336v-1149h-422z" />
<glyph unicode="&#xe4;" horiz-adv-x="1112" d="M51 270q0 71 38 135.5t98 111.5t142 86.5t162.5 64.5t165.5 43v61q0 22 -1 41.5t-5.5 55.5t-13.5 61.5t-27 45t-43 19.5q-29 -8 -119.5 -94.5t-173.5 -189.5l-135 284q62 24 175 42t253 18q87 0 151.5 -15t103.5 -39.5t62.5 -62t31.5 -76.5t8 -90v-526l155 -246h-422v160 q-58 -82 -140.5 -136.5t-182.5 -54.5q-125 0 -204 88.5t-79 212.5zM209 1286q0 62 43 105t106 43q62 0 105 -43t43 -105q0 -63 -43 -106t-105 -43q-63 0 -106 43t-43 106zM338 305q0 -74 27 -114.5t75 -40.5q109 0 217 96v401q-132 -43 -225.5 -151.5t-93.5 -190.5z M608 1286q0 62 43.5 105t106.5 43q61 0 104 -43t43 -105q0 -63 -42.5 -106t-104.5 -43q-63 0 -106.5 43t-43.5 106z" />
<glyph unicode="&#xe7;" horiz-adv-x="976" d="M25 512q0 147 72.5 272t196 198t267.5 73q93 0 195.5 -18.5t161.5 -41.5l-136 -284q-83 104 -181 190t-136 94q-76 0 -123 -89t-47 -228q0 -83 26 -191.5t71.5 -212t117.5 -174.5t152 -71q48 10 121.5 64.5t117.5 109.5l68 -99q-37 -28 -65 -46t-73 -40.5t-99.5 -34.5 t-117.5 -14l-22 -94q32 14 70 14q49 0 83.5 -25.5t34.5 -70.5q0 -71 -68.5 -109t-232.5 -38l10 45q83 0 113.5 28t30.5 74q0 22 -13 32.5t-32 10.5q-24 0 -41 -10h-27l33 145q-150 9 -271 83.5t-189 195t-68 262.5z" />
<glyph unicode="&#xf7;" d="M102 727v61h820v-61h-820zM365 465q0 60 44 103.5t105 43.5q60 0 104 -43.5t44 -103.5q0 -61 -44 -105.5t-104 -44.5q-61 0 -105 44t-44 106zM365 1053q0 60 44 103.5t105 43.5q60 0 104 -43.5t44 -103.5q0 -61 -44 -105.5t-104 -44.5q-61 0 -105 44t-44 106z" />
<glyph unicode="&#xfc;" horiz-adv-x="1271" d="M33 942l422 82v-772q0 -18 1 -29.5t5.5 -28.5t13.5 -27.5t27 -18t43 -7.5q132 0 272 129v457l-155 215l421 82v-809l156 -215h-422v195q-182 -226 -371 -226q-77 0 -129.5 21.5t-79.5 62.5t-38 88t-11 111v475zM289 1286q0 62 43 105t106 43q62 0 105 -43t43 -105 q0 -63 -43 -106t-105 -43q-63 0 -106 43t-43 106zM688 1286q0 62 43.5 105t106.5 43q61 0 104 -43t43 -105q0 -63 -42.5 -106t-104.5 -43q-63 0 -106.5 43t-43.5 106z" />
<glyph unicode="&#x2c6;" horiz-adv-x="915" d="M82 1081l213 408h326l213 -408l-375 226z" />
<glyph unicode="&#x2dc;" horiz-adv-x="681" d="M82 1157q0 258 111 258q38 0 81 -30.5t74.5 -66.5t66 -66.5t58.5 -30.5q22 0 36 18t19.5 53t7 59.5t1.5 63.5h63q0 -258 -111 -258q-38 0 -81 30.5t-74.5 67t-66 67t-58.5 30.5q-22 0 -36 -18t-19.5 -53.5t-7 -60t-1.5 -63.5h-63z" />
<glyph unicode="&#x2000;" horiz-adv-x="962" />
<glyph unicode="&#x2001;" horiz-adv-x="1925" />
<glyph unicode="&#x2002;" horiz-adv-x="962" />
<glyph unicode="&#x2003;" horiz-adv-x="1925" />
<glyph unicode="&#x2004;" horiz-adv-x="641" />
<glyph unicode="&#x2005;" horiz-adv-x="481" />
<glyph unicode="&#x2006;" horiz-adv-x="320" />
<glyph unicode="&#x2007;" horiz-adv-x="320" />
<glyph unicode="&#x2008;" horiz-adv-x="240" />
<glyph unicode="&#x2009;" horiz-adv-x="385" />
<glyph unicode="&#x200a;" horiz-adv-x="106" />
<glyph unicode="&#x2010;" horiz-adv-x="782" d="M61 727v61h660v-61h-660z" />
<glyph unicode="&#x2011;" horiz-adv-x="782" d="M61 727v61h660v-61h-660z" />
<glyph unicode="&#x2012;" horiz-adv-x="782" d="M61 727v61h660v-61h-660z" />
<glyph unicode="&#x2013;" horiz-adv-x="1146" d="M61 727v61h1024v-61h-1024z" />
<glyph unicode="&#x2014;" horiz-adv-x="2170" d="M61 727v61h2048v-61h-2048z" />
<glyph unicode="&#x2018;" horiz-adv-x="481" d="M61 1059q0 158 91.5 291.5t246.5 195.5q-54 -89 -84 -172.5t-30 -140.5q58 -15 96.5 -63.5t38.5 -110.5q0 -72 -53.5 -125t-126.5 -53q-72 0 -125.5 53t-53.5 125z" />
<glyph unicode="&#x2019;" horiz-adv-x="481" d="M61 1368q0 72 54 125t127 53q72 0 125 -53t53 -125q0 -158 -91.5 -291.5t-246.5 -195.5q54 89 84.5 172.5t30.5 140.5q-58 15 -97 63.5t-39 110.5z" />
<glyph unicode="&#x201c;" horiz-adv-x="911" d="M61 1059q0 158 91.5 291.5t246.5 195.5q-54 -89 -84 -172.5t-30 -140.5q58 -15 96.5 -63.5t38.5 -110.5q0 -72 -53.5 -125t-126.5 -53q-72 0 -125.5 53t-53.5 125zM492 1059q0 158 91 291.5t246 195.5q-54 -89 -84 -172.5t-30 -140.5q58 -15 96.5 -63.5t38.5 -110.5 q0 -72 -53.5 -125t-126.5 -53q-72 0 -125 53t-53 125z" />
<glyph unicode="&#x201d;" horiz-adv-x="911" d="M61 1368q0 72 54 125t127 53q72 0 125 -53t53 -125q0 -158 -91.5 -291.5t-246.5 -195.5q54 89 84.5 172.5t30.5 140.5q-58 15 -97 63.5t-39 110.5zM492 1368q0 72 53.5 125t126.5 53q72 0 125 -53t53 -125q0 -158 -91.5 -291.5t-246.5 -195.5q54 89 84.5 172.5 t30.5 140.5q-58 15 -96.5 63.5t-38.5 110.5z" />
<glyph unicode="&#x2026;" horiz-adv-x="1648" d="M102 150q0 72 54 125t127 53q72 0 125 -53t53 -125q0 -73 -53 -127t-125 -54q-73 0 -127 53.5t-54 127.5zM645 150q0 72 53.5 125t126.5 53q72 0 125.5 -53t53.5 -125q0 -73 -53.5 -127t-125.5 -54q-73 0 -126.5 53.5t-53.5 127.5zM1188 150q0 72 53.5 125t126.5 53 q72 0 125 -53t53 -125q0 -73 -53 -127t-125 -54q-73 0 -126.5 53.5t-53.5 127.5z" />
<glyph unicode="&#x202f;" horiz-adv-x="385" />
<glyph unicode="&#x205f;" horiz-adv-x="481" />
<glyph unicode="&#x20ac;" horiz-adv-x="1492" d="M102 557l31 115h182q-2 29 -2 86t2 86h-135l31 114h117q40 276 180.5 432t345.5 156q146 0 289 -35t241 -84l-141 -403q-39 63 -138 163t-212.5 186t-177.5 102q-74 0 -105.5 -83.5t-31.5 -248.5q0 -74 12 -185h440l-31 -114h-393q19 -105 35 -172h311l-30 -115h-252 q29 -106 63 -194.5t77 -163t95.5 -116.5t108.5 -42q186 0 297 301l80 -213q-215 -160 -502 -160q-218 0 -368 156.5t-193 431.5h-226z" />
<glyph unicode="&#x25fc;" d="M0 0v1024h1024v-1024h-1024z" />
</font>
</defs>
</svg>
